# xmcd
#
# Track frame offsets: 
#        150
#        25023
#        65500
#        98655
#        130134
#        160540
#        193904
#        216574
#        236567
#
# Disc length: 3338 seconds
#
# Revision: 1
# Processed by: cddbd v1.5.2PL0 Copyright (c) Steve Scherf et al.
# Submitted via: ExactAudioCopy v0.99pb3
#
DISCID=780d0809
DTITLE=Satoko Fujii Ma-Do - Heat Wave
DYEAR=2008
DGENRE=Avant-Jazz, Free Improvisation
TTITLE0=Heat Wave
TTITLE1=Beyond The Horizon
TTITLE2=Mosaic
TTITLE3=Ring A Bell
TTITLE4=Tornado
TTITLE5=The Squall In The Sahara
TTITLE6=Amoeba
TTITLE7=Spiral Staircase
TTITLE8=To The Skies
EXTD=YEAR: 2008
EXTT0=
EXTT1=
EXTT2=
EXTT3=
EXTT4=
EXTT5=
EXTT6=
EXTT7=
EXTT8=
PLAYORDER=
